PathFileType  4	(X/Y/Z) C:\Users\antoi\Documents\MyRepositories\mobilecap\ResultsAnalysis
DataRate	CameraRate	NumFrames	NumMarkers	Units	OrigDataRate	OrigDataStartFrame	OrigNumFrames
100.0	100.0	4	51	mm	100.0	116	132
Frame#	Time	r_knee			r_shank_antsup			r_ankle			r_calc			r_5meta			r_toe			L_knee			L_shank_antsup			L_ankle			L_calc			L_5meta			L_toe			r_sh2			r_sh3			r_sh4			L_sh2			L_sh3			r_thigh1			r_thigh2			r_thigh3			r_thigh4			r_thigh5			L_thigh1			L_thigh2			L_thigh3			L_thigh4			r.ASIS			r.PSIS			L.ASIS			L.PSIS			C7			R_Shoulder			L_Shoulder			R_Sternum			L_Sternum			R_humerus			R_elbow_med			R_elbow_lat			R_forearm			R_wrist_radius			R_wrist_ulna			L_humerus			L_elbow_med			L_elbow_lat			L_forearm			L_wrist_radius			L_wrist_ulna			R_HJC			L_HJC			R_HJC_reg			L_HJC_reg			
		X1	Y1	Z1	X2	Y2	Z2	X3	Y3	Z3	X4	Y4	Z4	X5	Y5	Z5	X6	Y6	Z6	X7	Y7	Z7	X8	Y8	Z8	X9	Y9	Z9	X10	Y10	Z10	X11	Y11	Z11	X12	Y12	Z12	X13	Y13	Z13	X14	Y14	Z14	X15	Y15	Z15	X16	Y16	Z16	X17	Y17	Z17	X18	Y18	Z18	X19	Y19	Z19	X20	Y20	Z20	X21	Y21	Z21	X22	Y22	Z22	X23	Y23	Z23	X24	Y24	Z24	X25	Y25	Z25	X26	Y26	Z26	X27	Y27	Z27	X28	Y28	Z28	X29	Y29	Z29	X30	Y30	Z30	X31	Y31	Z31	X32	Y32	Z32	X33	Y33	Z33	X34	Y34	Z34	X35	Y35	Z35	X36	Y36	Z36	X37	Y37	Z37	X38	Y38	Z38	X39	Y39	Z39	X40	Y40	Z40	X41	Y41	Z41	X42	Y42	Z42	X43	Y43	Z43	X44	Y44	Z44	X45	Y45	Z45	X46	Y46	Z46	X47	Y47	Z47	X48	Y48	Z48	X49	Y49	Z49	X50	Y50	Z50	X51	Y51	Z51	

116	1.15000000	1414.64874	459.60489	-50.41768	1485.82872	365.57783	-68.52363	1492.78117	86.19165	-95.16114	1456.94497	47.50356	-152.46180	1614.09780	57.88881	-66.35837	1647.64285	89.55099	-105.73320	1135.00828	453.23011	-347.03555	1115.41764	339.61409	-297.73819	900.47419	129.97030	-321.45029	836.82126	112.84412	-278.42241	991.45638	39.31531	-330.23841	1027.07662	43.34416	-272.76574	1505.10731	255.39980	-85.85410	1429.14589	344.88331	-20.17119	1432.64891	235.14858	-46.81780	1089.30065	377.87386	-371.11407	1021.59774	280.36005	-380.34379	1378.16018	769.50431	-43.94035	1425.43373	669.21480	-45.20851	1391.24016	626.67512	-3.78184	1283.73283	723.46627	-4.25545	1333.54958	619.17004	-2.48916	1288.14352	717.68051	-367.11670	1262.58967	583.75364	-354.00775	1185.67229	740.57191	-404.60293	1154.59340	603.63319	-382.14332	1353.20096	906.30480	-83.37557	1166.92927	939.47322	-142.86261	1350.64610	895.18059	-328.98583	1162.91370	943.82860	-258.98177	1171.42995	1394.39708	-193.48311	1214.11294	1354.93070	-38.37712	1251.14858	1377.54246	-343.91895	1299.43596	1344.22530	-163.49216	1304.56084	1343.15962	-208.32563	1201.07483	1223.93992	23.72608	1113.17313	1045.73016	-61.42174	1111.72097	1050.66823	15.29150	1110.77869	928.79352	45.13988	1099.47824	824.74322	52.29584	1063.29628	833.96436	56.77209	1304.89108	1243.92024	-413.71516	1290.74105	1036.18200	-388.84768	1306.02269	1057.24310	-456.76101	1401.27118	1018.48593	-469.01412	1508.48541	949.02998	-449.36351	1495.54626	925.63965	-469.16581	1264.88888	830.88855	-103.02541	1263.74026	822.42015	-292.21807	1285.91643	823.14667	-118.26343	1280.31181	829.22509	-280.32323	
117	1.16000000	1425.73897	459.37415	-48.96029	1495.94866	364.08604	-67.68859	1497.54730	85.00331	-95.31387	1459.62843	49.17180	-153.02123	1617.32221	51.85104	-66.89287	1652.51320	81.57102	-106.28483	1149.93679	452.41191	-346.21499	1128.32389	338.09438	-299.24129	906.43929	135.53818	-322.32284	842.90891	121.32783	-279.07417	993.16556	39.60637	-330.48197	1028.42208	42.63976	-272.74868	1513.76589	253.80282	-85.40701	1439.31564	344.17932	-19.22921	1441.03743	234.53182	-46.19284	1101.43145	379.09486	-370.82924	1030.49866	284.05635	-380.85604	1392.24445	769.67223	-42.18458	1438.63795	668.99959	-43.53846	1404.07233	626.77251	-2.31171	1297.48961	724.56744	-2.45281	1346.31950	619.54069	-0.78246	1302.12619	717.11875	-365.10918	1277.32258	582.84346	-353.01792	1199.18401	739.81708	-401.82052	1168.75334	602.74899	-379.09793	1367.30928	907.15468	-81.14966	1180.79204	939.74675	-141.21540	1365.70156	894.43984	-326.86780	1177.71587	943.16602	-257.56391	1183.65919	1393.73984	-191.44656	1226.39797	1354.47023	-36.30052	1263.19567	1376.94866	-342.13451	1311.82026	1344.19366	-161.47118	1317.00574	1343.14905	-206.33292	1214.52455	1223.25850	25.72174	1128.20957	1044.05356	-59.07729	1126.88468	1049.09522	17.47421	1127.45739	927.15107	47.33905	1117.54102	822.98159	54.52322	1081.20567	831.73260	58.99061	1316.28462	1242.75172	-411.80947	1300.99338	1035.18366	-386.36888	1316.27090	1055.98381	-454.33829	1411.12519	1016.30453	-466.67154	1517.63407	945.69737	-446.92734	1504.56881	922.55546	-466.95403	1279.16469	831.48308	-100.57385	1278.66568	821.79332	-289.70439	1299.81407	823.79153	-115.95025	1295.51672	828.56353	-278.20101	
118	1.17000000	1436.87969	459.69051	-47.53099	1505.63853	362.83134	-66.80045	1501.73006	84.17846	-95.55000	1461.92267	50.44682	-153.30924	1620.03403	47.09180	-67.47383	1656.50802	75.02179	-106.98524	1166.23474	451.47972	-345.76758	1142.54014	336.48685	-301.02312	913.60866	141.75235	-323.17912	850.35656	130.80175	-279.76751	995.26693	40.15720	-330.70979	1029.96154	42.13933	-272.66103	1521.90530	252.54221	-84.92244	1449.14329	343.86776	-18.22481	1448.95075	234.33451	-45.49877	1115.03658	380.29064	-370.77859	1040.83898	287.87280	-381.50965	1406.17061	770.44902	-40.74951	1451.89430	669.50015	-42.23657	1417.13742	627.51645	-0.90402	1311.38855	726.23178	-0.48437	1359.34273	620.61233	1.03979	1316.57174	716.85619	-362.92450	1292.95096	582.14152	-352.20670	1213.00725	739.15617	-398.87585	1183.70438	601.76261	-376.16951	1381.20283	908.60952	-78.87521	1194.37694	940.41044	-139.58805	1380.75460	894.03538	-324.55811	1192.43336	942.75346	-256.21186	1195.92772	1393.44132	-189.37436	1238.69122	1354.35247	-34.21198	1275.25491	1376.68300	-340.36619	1324.18278	1344.51468	-159.42628	1329.43605	1343.47912	-204.31023	1228.05493	1222.91875	27.72940	1143.35005	1042.69957	-56.61646	1142.27633	1047.78824	19.70812	1144.58788	925.78652	49.57428	1136.27044	821.49379	56.76127	1099.79901	829.70534	61.24553	1327.54881	1241.80895	-409.90132	1311.02023	1034.44158	-383.71404	1326.19606	1054.94222	-451.77465	1420.53794	1014.10865	-464.30001	1526.15145	942.08796	-444.60885	1512.88903	919.21661	-464.82672	1293.28416	832.59384	-97.98727	1293.59845	821.47840	-287.03032	1313.51349	824.99168	-113.58214	1310.79403	828.25959	-275.93914	
119	1.18000000	1448.30839	460.57228	-46.31546	1514.88942	361.80006	-66.05551	1505.10743	83.68335	-95.83128	1463.65679	51.30041	-153.38356	1622.07220	43.64793	-67.95106	1659.45942	69.99038	-107.67436	1184.01273	450.33990	-345.60956	1158.10407	334.76727	-302.84061	922.14951	148.67016	-323.96329	859.37671	141.32277	-280.46910	997.81273	41.15418	-330.90820	1031.81399	41.92856	-272.52660	1529.39066	251.54445	-84.53729	1458.64745	343.94904	-17.24652	1456.31090	234.53323	-44.75515	1130.34967	381.31799	-370.87599	1052.84967	291.65796	-382.16028	1419.92255	771.86524	-39.50295	1465.17726	670.73535	-41.27441	1430.47637	628.88039	0.40890	1325.39373	728.33099	1.64961	1372.68643	622.33319	2.85708	1331.47762	716.83051	-360.54638	1309.51527	581.62335	-351.50555	1227.16658	738.50814	-395.74237	1199.53500	600.56998	-373.47637	1394.82443	910.63317	-76.54292	1207.69099	941.43261	-138.05350	1395.68363	893.97756	-322.03866	1206.97566	942.57293	-254.95281	1208.21623	1393.52388	-187.30059	1250.97773	1354.59903	-32.12723	1287.34682	1376.76120	-338.60734	1336.51933	1345.16953	-157.37684	1341.83561	1344.13252	-202.27017	1241.66813	1222.93762	29.73257	1158.58986	1041.70001	-54.05757	1157.87994	1046.78015	21.99460	1162.15983	924.73917	51.84315	1155.63843	820.32770	59.00959	1119.06790	827.93322	63.53317	1338.68878	1241.13077	-408.00196	1320.86226	1033.99211	-380.87722	1335.80289	1054.16834	-449.07029	1429.51714	1011.93719	-461.89054	1533.99929	938.22059	-442.40729	1520.47333	915.64687	-462.77305	1307.17918	834.19399	-95.29340	1308.46872	821.46606	-284.22062	1327.00583	826.72774	-111.10329	1325.99608	828.31744	-273.46923	
